<?xml version="1.0"?><svg width="793.7007874015749" height="1122.5196850393702" xmlns="http://www.w3.org/2000/svg">
 <title>Gum Leaf</title>

 <g>
  <title>Layer 1</title>
  <g id="layer1">
   <path fill="#000000" stroke-width="1px" id="path12384" d="m-668.919861,-561.573853l0,0"/>
   <path fill="#000000" stroke-width="1px" id="path12382" d="m-669.628845,-483.23468l0,0"/>
   <path fill="#000000" stroke-width="1px" id="path12376" d="m-612.051819,-561.573853l0,0"/>
   <path fill="#000000" stroke-width="1px" id="path12374" d="m-611.798584,-483.23468l0,0"/>
   <path fill="#000000" stroke-width="1px" id="path12366" d="m-431.724731,-561.573853l0,0"/>
   <path fill="#000000" stroke-width="1px" id="path12364" d="m-432.889435,-483.23468l0,0"/>
   <path fill="#000000" stroke-width="1px" id="path12356" d="m-250.182312,-561.573853l0,0"/>
   <path fill="#000000" stroke-width="1px" id="path12354" d="m-250.384857,-483.23468l0,0"/>
   <path fill="#000000" fill-rule="evenodd" stroke-width="1px" id="path1383" d="m235.487793,787.644409c136.089111,-12.90564 209.554199,-83.110474 326.022339,-305.616577c0,0 -154.048035,311.911987 -309.263428,289.34613l-16.758911,16.270447z"/>
   <path fill="#000000" fill-rule="evenodd" stroke-linecap="square" stroke-miterlimit="4" id="path1381" d="m619.582825,284.5802c-38.324036,103.091705 -114.039612,178.409241 -170.682831,234.399292c-28.321594,27.995056 -53.242188,54.892395 -67.718689,87.625c-14.476593,32.732605 -18.188995,71.157532 -4.718811,120.9375l10.781311,3.8125c0,0 -1.564514,-6.726501 -1.805511,-7.654297c13.976593,2.504517 67.822906,7.136902 120.993011,-38.470703c61.624359,-52.859558 120.329681,-164.987 112.937469,-400.65625l0.21405,0.006958zm-9.21405,28.555542c1.918335,214.385864 -53.631714,316.532898 -110.062469,364.9375c-54.260101,46.542542 -107.213898,44.296631 -115.531311,43.65625c-11.957703,-46.472229 -8.303589,-81.263184 5,-111.34375c13.628998,-30.816223 37.585602,-56.910034 65.718811,-84.71875c51.903992,-51.305603 117.729584,-108.510162 154.874969,-212.53125z"/>
  </g>
 </g>
</svg>