<svg width="24" height="24" viewBox="0 0 24 24" fill="none" xmlns="http://www.w3.org/2000/svg">
<g clip-path="url(#clip0)">
<path d="M19.584 15.541C19.8601 15.541 20.084 15.3172 20.084 15.041C20.084 14.7649 19.8601 14.541 19.584 14.541C19.3078 14.541 19.084 14.7649 19.084 15.041C19.084 15.3172 19.3078 15.541 19.584 15.541Z" fill="black"/>
<path d="M17.084 15.041C17.084 16.419 18.205 17.541 19.584 17.541H24.084V12.541H19.584C18.205 12.541 17.084 13.662 17.084 15.041ZM21.084 15.041C21.084 15.868 20.411 16.541 19.584 16.541C18.757 16.541 18.084 15.868 18.084 15.041C18.084 14.214 18.757 13.541 19.584 13.541C20.411 13.541 21.084 14.214 21.084 15.041Z" fill="black"/>
<path d="M19.584 18.541C17.654 18.541 16.084 16.971 16.084 15.041C16.084 13.111 17.654 11.541 19.584 11.541H24.084V10.041C24.084 8.11102 22.514 6.54102 20.584 6.54102H3.58398C1.65398 6.54102 0.0839844 8.11102 0.0839844 10.041V20.041C0.0839844 21.971 1.65398 23.541 3.58398 23.541H20.584C22.514 23.541 24.084 21.971 24.084 20.041V18.541H19.584Z" fill="black"/>
<path d="M23.528 6.66404C22.856 5.27504 21.628 4.20304 20.124 3.76404L21.035 5.58604C21.986 5.68204 22.844 6.06804 23.528 6.66404Z" fill="black"/>
<path d="M3.11898 5.58802L6.92098 3.54102H5.58398C3.39898 3.54102 1.51198 4.82602 0.625977 6.67702C1.30798 6.07602 2.16698 5.68702 3.11898 5.58802Z" fill="black"/>
<path d="M12.2854 5.54104L18.1734 2.19904C17.7344 1.54504 17.1054 1.05304 16.3414 0.811035C15.4314 0.524035 14.4674 0.615035 13.6254 1.06604L5.31543 5.54104H12.2854Z" fill="black"/>
<path d="M19.8925 5.541L18.6595 3.073L14.3115 5.541H19.8925Z" fill="black"/>
</g>
<defs>
<clipPath id="clip0">
<rect width="24" height="24" fill="white"/>
</clipPath>
</defs>
</svg>
